<svg xmlns="http://www.w3.org/2000/svg" xmlns:xlink="http://www.w3.org/1999/xlink" width="500" zoomAndPan="magnify" viewBox="0 0 375 374.999991" height="500" preserveAspectRatio="xMidYMid meet" version="1.0"><defs><filter x="0%" y="0%" width="100%" height="100%" id="id1"><feColorMatrix values="0 0 0 0 1 0 0 0 0 1 0 0 0 0 1 0 0 0 1 0" color-interpolation-filters="sRGB"/></filter><g/><mask id="id2"><g filter="url(#id1)"><rect x="-37.5" width="450" fill="#000000" y="-37.499999" height="449.999989" fill-opacity="0.349"/></g></mask><clipPath id="id3"><path d="M 0.796875 1.042969 L 261.046875 1.042969 L 261.046875 261 L 0.796875 261 Z M 0.796875 1.042969 " clip-rule="nonzero"/></clipPath><clipPath id="id4"><rect x="0" width="262" y="0" height="261"/></clipPath></defs><g fill="#5ce1e6" fill-opacity="0.302"><g transform="translate(54.942236, 184.740763)"><g><path d="M 55.109375 0 L 55.109375 -57.066406 L 42.554688 -57.066406 L 42.554688 -34.484375 L 19.402344 -34.484375 L 19.402344 -57.066406 L 6.847656 -57.066406 L 6.847656 0 L 19.402344 0 L 19.402344 -22.910156 L 42.554688 -22.910156 L 42.554688 0 Z M 55.109375 0 "/></g></g></g><g fill="#5ce1e6" fill-opacity="0.302"><g transform="translate(116.894056, 184.740763)"><g><path d="M 64.976562 -28.535156 L 64.976562 -28.695312 C 64.976562 -44.921875 52.339844 -58.046875 34.730469 -58.046875 C 17.121094 -58.046875 4.320312 -44.757812 4.320312 -28.535156 L 4.320312 -28.371094 C 4.320312 -12.148438 16.957031 0.976562 34.566406 0.976562 C 52.175781 0.976562 64.976562 -12.308594 64.976562 -28.535156 Z M 51.851562 -28.371094 C 51.851562 -18.585938 44.839844 -10.597656 34.730469 -10.597656 C 24.621094 -10.597656 17.445312 -18.75 17.445312 -28.535156 L 17.445312 -28.695312 C 17.445312 -38.480469 24.457031 -46.46875 34.566406 -46.46875 C 44.675781 -46.46875 51.851562 -38.316406 51.851562 -28.535156 Z M 51.851562 -28.371094 "/></g></g></g><g fill="#5ce1e6" fill-opacity="0.302"><g transform="translate(186.182271, 184.740763)"><g><path d="M 57.558594 0 L 57.558594 -57.066406 L 45.164062 -57.066406 L 45.164062 -21.929688 L 18.425781 -57.066406 L 6.847656 -57.066406 L 6.847656 0 L 19.238281 0 L 19.238281 -36.277344 L 46.875 0 Z M 57.558594 0 "/></g></g></g><g fill="#5ce1e6" fill-opacity="0.302"><g transform="translate(250.579568, 184.740763)"><g><path d="M 52.011719 -37.175781 L 52.011719 -37.339844 C 52.011719 -48.996094 43.777344 -57.066406 30.164062 -57.066406 L 6.847656 -57.066406 L 6.847656 0 L 19.402344 0 L 19.402344 -17.121094 L 28.941406 -17.121094 C 41.742188 -17.121094 52.011719 -23.96875 52.011719 -37.175781 Z M 39.296875 -36.929688 C 39.296875 -32.039062 35.625 -28.289062 29.347656 -28.289062 L 19.402344 -28.289062 L 19.402344 -45.734375 L 29.105469 -45.734375 C 35.382812 -45.734375 39.296875 -42.71875 39.296875 -37.09375 Z M 39.296875 -36.929688 "/></g></g></g><g fill="#5ce1e6" fill-opacity="0.302"><g transform="translate(305.031949, 184.740763)"><g><path d="M 19.972656 0 L 19.972656 -57.066406 L 7.417969 -57.066406 L 7.417969 0 Z M 19.972656 0 "/></g></g></g><g fill="#5ce1e6" fill-opacity="0.502"><g transform="translate(51.851979, 185.397614)"><g><path d="M 55.109375 0 L 55.109375 -57.066406 L 42.554688 -57.066406 L 42.554688 -34.484375 L 19.402344 -34.484375 L 19.402344 -57.066406 L 6.847656 -57.066406 L 6.847656 0 L 19.402344 0 L 19.402344 -22.910156 L 42.554688 -22.910156 L 42.554688 0 Z M 55.109375 0 "/></g></g></g><g fill="#5ce1e6" fill-opacity="0.502"><g transform="translate(113.803799, 185.397614)"><g><path d="M 64.976562 -28.535156 L 64.976562 -28.695312 C 64.976562 -44.921875 52.339844 -58.046875 34.730469 -58.046875 C 17.121094 -58.046875 4.320312 -44.757812 4.320312 -28.535156 L 4.320312 -28.371094 C 4.320312 -12.148438 16.957031 0.976562 34.566406 0.976562 C 52.175781 0.976562 64.976562 -12.308594 64.976562 -28.535156 Z M 51.851562 -28.371094 C 51.851562 -18.585938 44.839844 -10.597656 34.730469 -10.597656 C 24.621094 -10.597656 17.445312 -18.75 17.445312 -28.535156 L 17.445312 -28.695312 C 17.445312 -38.480469 24.457031 -46.46875 34.566406 -46.46875 C 44.675781 -46.46875 51.851562 -38.316406 51.851562 -28.535156 Z M 51.851562 -28.371094 "/></g></g></g><g fill="#5ce1e6" fill-opacity="0.502"><g transform="translate(183.092014, 185.397614)"><g><path d="M 57.558594 0 L 57.558594 -57.066406 L 45.164062 -57.066406 L 45.164062 -21.929688 L 18.425781 -57.066406 L 6.847656 -57.066406 L 6.847656 0 L 19.238281 0 L 19.238281 -36.277344 L 46.875 0 Z M 57.558594 0 "/></g></g></g><g fill="#5ce1e6" fill-opacity="0.502"><g transform="translate(247.489311, 185.397614)"><g><path d="M 52.011719 -37.175781 L 52.011719 -37.339844 C 52.011719 -48.996094 43.777344 -57.066406 30.164062 -57.066406 L 6.847656 -57.066406 L 6.847656 0 L 19.402344 0 L 19.402344 -17.121094 L 28.941406 -17.121094 C 41.742188 -17.121094 52.011719 -23.96875 52.011719 -37.175781 Z M 39.296875 -36.929688 C 39.296875 -32.039062 35.625 -28.289062 29.347656 -28.289062 L 19.402344 -28.289062 L 19.402344 -45.734375 L 29.105469 -45.734375 C 35.382812 -45.734375 39.296875 -42.71875 39.296875 -37.09375 Z M 39.296875 -36.929688 "/></g></g></g><g fill="#5ce1e6" fill-opacity="0.502"><g transform="translate(301.941692, 185.397614)"><g><path d="M 19.972656 0 L 19.972656 -57.066406 L 7.417969 -57.066406 L 7.417969 0 Z M 19.972656 0 "/></g></g></g><g fill="#b1d4e0" fill-opacity="1"><g transform="translate(48.76172, 186.054473)"><g><path d="M 55.109375 0 L 55.109375 -57.066406 L 42.554688 -57.066406 L 42.554688 -34.484375 L 19.402344 -34.484375 L 19.402344 -57.066406 L 6.847656 -57.066406 L 6.847656 0 L 19.402344 0 L 19.402344 -22.910156 L 42.554688 -22.910156 L 42.554688 0 Z M 55.109375 0 "/></g></g></g><g fill="#b1d4e0" fill-opacity="1"><g transform="translate(110.71354, 186.054473)"><g><path d="M 64.976562 -28.535156 L 64.976562 -28.695312 C 64.976562 -44.921875 52.339844 -58.046875 34.730469 -58.046875 C 17.121094 -58.046875 4.320312 -44.757812 4.320312 -28.535156 L 4.320312 -28.371094 C 4.320312 -12.148438 16.957031 0.976562 34.566406 0.976562 C 52.175781 0.976562 64.976562 -12.308594 64.976562 -28.535156 Z M 51.851562 -28.371094 C 51.851562 -18.585938 44.839844 -10.597656 34.730469 -10.597656 C 24.621094 -10.597656 17.445312 -18.75 17.445312 -28.535156 L 17.445312 -28.695312 C 17.445312 -38.480469 24.457031 -46.46875 34.566406 -46.46875 C 44.675781 -46.46875 51.851562 -38.316406 51.851562 -28.535156 Z M 51.851562 -28.371094 "/></g></g></g><g fill="#b1d4e0" fill-opacity="1"><g transform="translate(180.001755, 186.054473)"><g><path d="M 57.558594 0 L 57.558594 -57.066406 L 45.164062 -57.066406 L 45.164062 -21.929688 L 18.425781 -57.066406 L 6.847656 -57.066406 L 6.847656 0 L 19.238281 0 L 19.238281 -36.277344 L 46.875 0 Z M 57.558594 0 "/></g></g></g><g fill="#b1d4e0" fill-opacity="1"><g transform="translate(244.399052, 186.054473)"><g><path d="M 52.011719 -37.175781 L 52.011719 -37.339844 C 52.011719 -48.996094 43.777344 -57.066406 30.164062 -57.066406 L 6.847656 -57.066406 L 6.847656 0 L 19.402344 0 L 19.402344 -17.121094 L 28.941406 -17.121094 C 41.742188 -17.121094 52.011719 -23.96875 52.011719 -37.175781 Z M 39.296875 -36.929688 C 39.296875 -32.039062 35.625 -28.289062 29.347656 -28.289062 L 19.402344 -28.289062 L 19.402344 -45.734375 L 29.105469 -45.734375 C 35.382812 -45.734375 39.296875 -42.71875 39.296875 -37.09375 Z M 39.296875 -36.929688 "/></g></g></g><g fill="#b1d4e0" fill-opacity="1"><g transform="translate(298.851433, 186.054473)"><g><path d="M 19.972656 0 L 19.972656 -57.066406 L 7.417969 -57.066406 L 7.417969 0 Z M 19.972656 0 "/></g></g></g><g fill="#5ce1e6" fill-opacity="0.302"><g transform="translate(332.418784, 184.740763)"><g/></g></g><g fill="#5ce1e6" fill-opacity="0.502"><g transform="translate(329.328527, 185.397614)"><g/></g></g><g fill="#b1d4e0" fill-opacity="1"><g transform="translate(326.238268, 186.054473)"><g/></g></g><g fill="#5ce1e6" fill-opacity="0.302"><g transform="translate(105.02817, 257.490758)"><g><path d="M 56.171875 0 L 42.230469 -20.382812 C 49.484375 -23.070312 54.457031 -28.859375 54.457031 -38.070312 L 54.457031 -38.234375 C 54.457031 -49.976562 46.386719 -57.066406 32.9375 -57.066406 L 6.847656 -57.066406 L 6.847656 0 L 19.402344 0 L 19.402344 -18.261719 L 29.265625 -18.261719 L 41.496094 0 Z M 41.742188 -37.421875 C 41.742188 -32.609375 38.234375 -29.347656 32.121094 -29.347656 L 19.402344 -29.347656 L 19.402344 -45.734375 L 31.875 -45.734375 C 37.992188 -45.734375 41.742188 -42.964844 41.742188 -37.582031 Z M 41.742188 -37.421875 "/></g></g></g><g fill="#5ce1e6" fill-opacity="0.302"><g transform="translate(163.963911, 257.490758)"><g><path d="M 50.300781 0 L 50.300781 -11.167969 L 19.320312 -11.167969 L 19.320312 -23.152344 L 46.226562 -23.152344 L 46.226562 -34.320312 L 19.320312 -34.320312 L 19.320312 -45.898438 L 49.894531 -45.898438 L 49.894531 -57.066406 L 6.847656 -57.066406 L 6.847656 0 Z M 50.300781 0 "/></g></g></g><g fill="#5ce1e6" fill-opacity="0.302"><g transform="translate(218.579326, 257.490758)"><g><path d="M 59.433594 -28.535156 L 59.433594 -28.695312 C 59.433594 -44.757812 47.039062 -57.066406 29.105469 -57.066406 L 6.847656 -57.066406 L 6.847656 0 L 29.105469 0 C 47.039062 0 59.433594 -12.472656 59.433594 -28.535156 Z M 46.304688 -28.371094 C 46.304688 -18.261719 39.375 -11.332031 29.105469 -11.332031 L 19.402344 -11.332031 L 19.402344 -45.734375 L 29.105469 -45.734375 C 39.375 -45.734375 46.304688 -38.644531 46.304688 -28.535156 Z M 46.304688 -28.371094 "/></g></g></g><g fill="#5ce1e6" fill-opacity="0.502"><g transform="translate(101.937913, 258.147609)"><g><path d="M 56.171875 0 L 42.230469 -20.382812 C 49.484375 -23.070312 54.457031 -28.859375 54.457031 -38.070312 L 54.457031 -38.234375 C 54.457031 -49.976562 46.386719 -57.066406 32.9375 -57.066406 L 6.847656 -57.066406 L 6.847656 0 L 19.402344 0 L 19.402344 -18.261719 L 29.265625 -18.261719 L 41.496094 0 Z M 41.742188 -37.421875 C 41.742188 -32.609375 38.234375 -29.347656 32.121094 -29.347656 L 19.402344 -29.347656 L 19.402344 -45.734375 L 31.875 -45.734375 C 37.992188 -45.734375 41.742188 -42.964844 41.742188 -37.582031 Z M 41.742188 -37.421875 "/></g></g></g><g fill="#5ce1e6" fill-opacity="0.502"><g transform="translate(160.873655, 258.147609)"><g><path d="M 50.300781 0 L 50.300781 -11.167969 L 19.320312 -11.167969 L 19.320312 -23.152344 L 46.226562 -23.152344 L 46.226562 -34.320312 L 19.320312 -34.320312 L 19.320312 -45.898438 L 49.894531 -45.898438 L 49.894531 -57.066406 L 6.847656 -57.066406 L 6.847656 0 Z M 50.300781 0 "/></g></g></g><g fill="#5ce1e6" fill-opacity="0.502"><g transform="translate(215.489069, 258.147609)"><g><path d="M 59.433594 -28.535156 L 59.433594 -28.695312 C 59.433594 -44.757812 47.039062 -57.066406 29.105469 -57.066406 L 6.847656 -57.066406 L 6.847656 0 L 29.105469 0 C 47.039062 0 59.433594 -12.472656 59.433594 -28.535156 Z M 46.304688 -28.371094 C 46.304688 -18.261719 39.375 -11.332031 29.105469 -11.332031 L 19.402344 -11.332031 L 19.402344 -45.734375 L 29.105469 -45.734375 C 39.375 -45.734375 46.304688 -38.644531 46.304688 -28.535156 Z M 46.304688 -28.371094 "/></g></g></g><g fill="#b1d4e0" fill-opacity="1"><g transform="translate(98.847654, 258.804468)"><g><path d="M 56.171875 0 L 42.230469 -20.382812 C 49.484375 -23.070312 54.457031 -28.859375 54.457031 -38.070312 L 54.457031 -38.234375 C 54.457031 -49.976562 46.386719 -57.066406 32.9375 -57.066406 L 6.847656 -57.066406 L 6.847656 0 L 19.402344 0 L 19.402344 -18.261719 L 29.265625 -18.261719 L 41.496094 0 Z M 41.742188 -37.421875 C 41.742188 -32.609375 38.234375 -29.347656 32.121094 -29.347656 L 19.402344 -29.347656 L 19.402344 -45.734375 L 31.875 -45.734375 C 37.992188 -45.734375 41.742188 -42.964844 41.742188 -37.582031 Z M 41.742188 -37.421875 "/></g></g></g><g fill="#b1d4e0" fill-opacity="1"><g transform="translate(157.783396, 258.804468)"><g><path d="M 50.300781 0 L 50.300781 -11.167969 L 19.320312 -11.167969 L 19.320312 -23.152344 L 46.226562 -23.152344 L 46.226562 -34.320312 L 19.320312 -34.320312 L 19.320312 -45.898438 L 49.894531 -45.898438 L 49.894531 -57.066406 L 6.847656 -57.066406 L 6.847656 0 Z M 50.300781 0 "/></g></g></g><g fill="#b1d4e0" fill-opacity="1"><g transform="translate(212.39881, 258.804468)"><g><path d="M 59.433594 -28.535156 L 59.433594 -28.695312 C 59.433594 -44.757812 47.039062 -57.066406 29.105469 -57.066406 L 6.847656 -57.066406 L 6.847656 0 L 29.105469 0 C 47.039062 0 59.433594 -12.472656 59.433594 -28.535156 Z M 46.304688 -28.371094 C 46.304688 -18.261719 39.375 -11.332031 29.105469 -11.332031 L 19.402344 -11.332031 L 19.402344 -45.734375 L 29.105469 -45.734375 C 39.375 -45.734375 46.304688 -38.644531 46.304688 -28.535156 Z M 46.304688 -28.371094 "/></g></g></g><g mask="url(#id2)"><g transform="matrix(1, 0, 0, 1, 17, 114)"><g clip-path="url(#id4)"><g clip-path="url(#id3)"><path fill="#b1d4e0" d="M 130.921875 1.042969 C 59.054688 1.042969 0.796875 59.300781 0.796875 131.167969 C 0.796875 203.035156 59.054688 261.292969 130.921875 261.292969 C 202.789062 261.292969 261.046875 203.035156 261.046875 131.167969 C 261.046875 59.300781 202.789062 1.042969 130.921875 1.042969 " fill-opacity="1" fill-rule="nonzero"/></g></g></g></g></svg>