<svg xmlns="http://www.w3.org/2000/svg" xmlns:xlink="http://www.w3.org/1999/xlink" width="500" zoomAndPan="magnify" viewBox="0 0 375 374.999991" height="500" preserveAspectRatio="xMidYMid meet" version="1.0"><defs><filter x="0%" y="0%" width="100%" height="100%" id="id1"><feColorMatrix values="0 0 0 0 1 0 0 0 0 1 0 0 0 0 1 0 0 0 1 0" color-interpolation-filters="sRGB"/></filter><g/><mask id="id2"><g filter="url(#id1)"><rect x="-37.5" width="450" fill="#000000" y="-37.499999" height="449.999989" fill-opacity="0.349"/></g></mask><clipPath id="id3"><path d="M 0 0.539062 L 337.5 0.539062 L 337.5 338.039062 L 0 338.039062 Z M 0 0.539062 " clip-rule="nonzero"/></clipPath><clipPath id="id4"><rect x="0" width="338" y="0" height="339"/></clipPath></defs><g fill="#5ce1e6" fill-opacity="0.302"><g transform="translate(92.442238, 93.99767)"><g><path d="M 55.109375 0 L 55.109375 -57.066406 L 42.554688 -57.066406 L 42.554688 -34.484375 L 19.402344 -34.484375 L 19.402344 -57.066406 L 6.847656 -57.066406 L 6.847656 0 L 19.402344 0 L 19.402344 -22.910156 L 42.554688 -22.910156 L 42.554688 0 Z M 55.109375 0 "/></g></g></g><g fill="#5ce1e6" fill-opacity="0.302"><g transform="translate(154.394058, 93.99767)"><g><path d="M 64.976562 -28.535156 L 64.976562 -28.695312 C 64.976562 -44.921875 52.339844 -58.046875 34.730469 -58.046875 C 17.121094 -58.046875 4.320312 -44.757812 4.320312 -28.535156 L 4.320312 -28.371094 C 4.320312 -12.148438 16.957031 0.976562 34.566406 0.976562 C 52.175781 0.976562 64.976562 -12.308594 64.976562 -28.535156 Z M 51.851562 -28.371094 C 51.851562 -18.585938 44.839844 -10.597656 34.730469 -10.597656 C 24.621094 -10.597656 17.445312 -18.75 17.445312 -28.535156 L 17.445312 -28.695312 C 17.445312 -38.480469 24.457031 -46.46875 34.566406 -46.46875 C 44.675781 -46.46875 51.851562 -38.316406 51.851562 -28.535156 Z M 51.851562 -28.371094 "/></g></g></g><g fill="#5ce1e6" fill-opacity="0.302"><g transform="translate(223.682273, 93.99767)"><g><path d="M 57.558594 0 L 57.558594 -57.066406 L 45.164062 -57.066406 L 45.164062 -21.929688 L 18.425781 -57.066406 L 6.847656 -57.066406 L 6.847656 0 L 19.238281 0 L 19.238281 -36.277344 L 46.875 0 Z M 57.558594 0 "/></g></g></g><g fill="#5ce1e6" fill-opacity="0.302"><g transform="translate(288.07957, 93.99767)"><g><path d="M 52.011719 -37.175781 L 52.011719 -37.339844 C 52.011719 -48.996094 43.777344 -57.066406 30.164062 -57.066406 L 6.847656 -57.066406 L 6.847656 0 L 19.402344 0 L 19.402344 -17.121094 L 28.941406 -17.121094 C 41.742188 -17.121094 52.011719 -23.96875 52.011719 -37.175781 Z M 39.296875 -36.929688 C 39.296875 -32.039062 35.625 -28.289062 29.347656 -28.289062 L 19.402344 -28.289062 L 19.402344 -45.734375 L 29.105469 -45.734375 C 35.382812 -45.734375 39.296875 -42.71875 39.296875 -37.09375 Z M 39.296875 -36.929688 "/></g></g></g><g fill="#5ce1e6" fill-opacity="0.302"><g transform="translate(342.531951, 93.99767)"><g><path d="M 19.972656 0 L 19.972656 -57.066406 L 7.417969 -57.066406 L 7.417969 0 Z M 19.972656 0 "/></g></g></g><g fill="#5ce1e6" fill-opacity="0.502"><g transform="translate(89.351974, 94.654526)"><g><path d="M 55.109375 0 L 55.109375 -57.066406 L 42.554688 -57.066406 L 42.554688 -34.484375 L 19.402344 -34.484375 L 19.402344 -57.066406 L 6.847656 -57.066406 L 6.847656 0 L 19.402344 0 L 19.402344 -22.910156 L 42.554688 -22.910156 L 42.554688 0 Z M 55.109375 0 "/></g></g></g><g fill="#5ce1e6" fill-opacity="0.502"><g transform="translate(151.303794, 94.654526)"><g><path d="M 64.976562 -28.535156 L 64.976562 -28.695312 C 64.976562 -44.921875 52.339844 -58.046875 34.730469 -58.046875 C 17.121094 -58.046875 4.320312 -44.757812 4.320312 -28.535156 L 4.320312 -28.371094 C 4.320312 -12.148438 16.957031 0.976562 34.566406 0.976562 C 52.175781 0.976562 64.976562 -12.308594 64.976562 -28.535156 Z M 51.851562 -28.371094 C 51.851562 -18.585938 44.839844 -10.597656 34.730469 -10.597656 C 24.621094 -10.597656 17.445312 -18.75 17.445312 -28.535156 L 17.445312 -28.695312 C 17.445312 -38.480469 24.457031 -46.46875 34.566406 -46.46875 C 44.675781 -46.46875 51.851562 -38.316406 51.851562 -28.535156 Z M 51.851562 -28.371094 "/></g></g></g><g fill="#5ce1e6" fill-opacity="0.502"><g transform="translate(220.592009, 94.654526)"><g><path d="M 57.558594 0 L 57.558594 -57.066406 L 45.164062 -57.066406 L 45.164062 -21.929688 L 18.425781 -57.066406 L 6.847656 -57.066406 L 6.847656 0 L 19.238281 0 L 19.238281 -36.277344 L 46.875 0 Z M 57.558594 0 "/></g></g></g><g fill="#5ce1e6" fill-opacity="0.502"><g transform="translate(284.989306, 94.654526)"><g><path d="M 52.011719 -37.175781 L 52.011719 -37.339844 C 52.011719 -48.996094 43.777344 -57.066406 30.164062 -57.066406 L 6.847656 -57.066406 L 6.847656 0 L 19.402344 0 L 19.402344 -17.121094 L 28.941406 -17.121094 C 41.742188 -17.121094 52.011719 -23.96875 52.011719 -37.175781 Z M 39.296875 -36.929688 C 39.296875 -32.039062 35.625 -28.289062 29.347656 -28.289062 L 19.402344 -28.289062 L 19.402344 -45.734375 L 29.105469 -45.734375 C 35.382812 -45.734375 39.296875 -42.71875 39.296875 -37.09375 Z M 39.296875 -36.929688 "/></g></g></g><g fill="#5ce1e6" fill-opacity="0.502"><g transform="translate(339.441688, 94.654526)"><g><path d="M 19.972656 0 L 19.972656 -57.066406 L 7.417969 -57.066406 L 7.417969 0 Z M 19.972656 0 "/></g></g></g><g fill="#b1d4e0" fill-opacity="1"><g transform="translate(86.261718, 95.31138)"><g><path d="M 55.109375 0 L 55.109375 -57.066406 L 42.554688 -57.066406 L 42.554688 -34.484375 L 19.402344 -34.484375 L 19.402344 -57.066406 L 6.847656 -57.066406 L 6.847656 0 L 19.402344 0 L 19.402344 -22.910156 L 42.554688 -22.910156 L 42.554688 0 Z M 55.109375 0 "/></g></g></g><g fill="#b1d4e0" fill-opacity="1"><g transform="translate(148.213538, 95.31138)"><g><path d="M 64.976562 -28.535156 L 64.976562 -28.695312 C 64.976562 -44.921875 52.339844 -58.046875 34.730469 -58.046875 C 17.121094 -58.046875 4.320312 -44.757812 4.320312 -28.535156 L 4.320312 -28.371094 C 4.320312 -12.148438 16.957031 0.976562 34.566406 0.976562 C 52.175781 0.976562 64.976562 -12.308594 64.976562 -28.535156 Z M 51.851562 -28.371094 C 51.851562 -18.585938 44.839844 -10.597656 34.730469 -10.597656 C 24.621094 -10.597656 17.445312 -18.75 17.445312 -28.535156 L 17.445312 -28.695312 C 17.445312 -38.480469 24.457031 -46.46875 34.566406 -46.46875 C 44.675781 -46.46875 51.851562 -38.316406 51.851562 -28.535156 Z M 51.851562 -28.371094 "/></g></g></g><g fill="#b1d4e0" fill-opacity="1"><g transform="translate(217.501753, 95.31138)"><g><path d="M 57.558594 0 L 57.558594 -57.066406 L 45.164062 -57.066406 L 45.164062 -21.929688 L 18.425781 -57.066406 L 6.847656 -57.066406 L 6.847656 0 L 19.238281 0 L 19.238281 -36.277344 L 46.875 0 Z M 57.558594 0 "/></g></g></g><g fill="#b1d4e0" fill-opacity="1"><g transform="translate(281.899049, 95.31138)"><g><path d="M 52.011719 -37.175781 L 52.011719 -37.339844 C 52.011719 -48.996094 43.777344 -57.066406 30.164062 -57.066406 L 6.847656 -57.066406 L 6.847656 0 L 19.402344 0 L 19.402344 -17.121094 L 28.941406 -17.121094 C 41.742188 -17.121094 52.011719 -23.96875 52.011719 -37.175781 Z M 39.296875 -36.929688 C 39.296875 -32.039062 35.625 -28.289062 29.347656 -28.289062 L 19.402344 -28.289062 L 19.402344 -45.734375 L 29.105469 -45.734375 C 35.382812 -45.734375 39.296875 -42.71875 39.296875 -37.09375 Z M 39.296875 -36.929688 "/></g></g></g><g fill="#b1d4e0" fill-opacity="1"><g transform="translate(336.351431, 95.31138)"><g><path d="M 19.972656 0 L 19.972656 -57.066406 L 7.417969 -57.066406 L 7.417969 0 Z M 19.972656 0 "/></g></g></g><g fill="#5ce1e6" fill-opacity="0.302"><g transform="translate(369.918786, 93.99767)"><g/></g></g><g fill="#5ce1e6" fill-opacity="0.502"><g transform="translate(366.828522, 94.654526)"><g/></g></g><g fill="#b1d4e0" fill-opacity="1"><g transform="translate(363.738266, 95.31138)"><g/></g></g><g fill="#5ce1e6" fill-opacity="0.302"><g transform="translate(142.528172, 166.747665)"><g><path d="M 56.171875 0 L 42.230469 -20.382812 C 49.484375 -23.070312 54.457031 -28.859375 54.457031 -38.070312 L 54.457031 -38.234375 C 54.457031 -49.976562 46.386719 -57.066406 32.9375 -57.066406 L 6.847656 -57.066406 L 6.847656 0 L 19.402344 0 L 19.402344 -18.261719 L 29.265625 -18.261719 L 41.496094 0 Z M 41.742188 -37.421875 C 41.742188 -32.609375 38.234375 -29.347656 32.121094 -29.347656 L 19.402344 -29.347656 L 19.402344 -45.734375 L 31.875 -45.734375 C 37.992188 -45.734375 41.742188 -42.964844 41.742188 -37.582031 Z M 41.742188 -37.421875 "/></g></g></g><g fill="#5ce1e6" fill-opacity="0.302"><g transform="translate(201.463914, 166.747665)"><g><path d="M 50.300781 0 L 50.300781 -11.167969 L 19.320312 -11.167969 L 19.320312 -23.152344 L 46.226562 -23.152344 L 46.226562 -34.320312 L 19.320312 -34.320312 L 19.320312 -45.898438 L 49.894531 -45.898438 L 49.894531 -57.066406 L 6.847656 -57.066406 L 6.847656 0 Z M 50.300781 0 "/></g></g></g><g fill="#5ce1e6" fill-opacity="0.302"><g transform="translate(256.079328, 166.747665)"><g><path d="M 59.433594 -28.535156 L 59.433594 -28.695312 C 59.433594 -44.757812 47.039062 -57.066406 29.105469 -57.066406 L 6.847656 -57.066406 L 6.847656 0 L 29.105469 0 C 47.039062 0 59.433594 -12.472656 59.433594 -28.535156 Z M 46.304688 -28.371094 C 46.304688 -18.261719 39.375 -11.332031 29.105469 -11.332031 L 19.402344 -11.332031 L 19.402344 -45.734375 L 29.105469 -45.734375 C 39.375 -45.734375 46.304688 -38.644531 46.304688 -28.535156 Z M 46.304688 -28.371094 "/></g></g></g><g fill="#5ce1e6" fill-opacity="0.502"><g transform="translate(139.437908, 167.404521)"><g><path d="M 56.171875 0 L 42.230469 -20.382812 C 49.484375 -23.070312 54.457031 -28.859375 54.457031 -38.070312 L 54.457031 -38.234375 C 54.457031 -49.976562 46.386719 -57.066406 32.9375 -57.066406 L 6.847656 -57.066406 L 6.847656 0 L 19.402344 0 L 19.402344 -18.261719 L 29.265625 -18.261719 L 41.496094 0 Z M 41.742188 -37.421875 C 41.742188 -32.609375 38.234375 -29.347656 32.121094 -29.347656 L 19.402344 -29.347656 L 19.402344 -45.734375 L 31.875 -45.734375 C 37.992188 -45.734375 41.742188 -42.964844 41.742188 -37.582031 Z M 41.742188 -37.421875 "/></g></g></g><g fill="#5ce1e6" fill-opacity="0.502"><g transform="translate(198.37365, 167.404521)"><g><path d="M 50.300781 0 L 50.300781 -11.167969 L 19.320312 -11.167969 L 19.320312 -23.152344 L 46.226562 -23.152344 L 46.226562 -34.320312 L 19.320312 -34.320312 L 19.320312 -45.898438 L 49.894531 -45.898438 L 49.894531 -57.066406 L 6.847656 -57.066406 L 6.847656 0 Z M 50.300781 0 "/></g></g></g><g fill="#5ce1e6" fill-opacity="0.502"><g transform="translate(252.989064, 167.404521)"><g><path d="M 59.433594 -28.535156 L 59.433594 -28.695312 C 59.433594 -44.757812 47.039062 -57.066406 29.105469 -57.066406 L 6.847656 -57.066406 L 6.847656 0 L 29.105469 0 C 47.039062 0 59.433594 -12.472656 59.433594 -28.535156 Z M 46.304688 -28.371094 C 46.304688 -18.261719 39.375 -11.332031 29.105469 -11.332031 L 19.402344 -11.332031 L 19.402344 -45.734375 L 29.105469 -45.734375 C 39.375 -45.734375 46.304688 -38.644531 46.304688 -28.535156 Z M 46.304688 -28.371094 "/></g></g></g><g fill="#b1d4e0" fill-opacity="1"><g transform="translate(136.347652, 168.061375)"><g><path d="M 56.171875 0 L 42.230469 -20.382812 C 49.484375 -23.070312 54.457031 -28.859375 54.457031 -38.070312 L 54.457031 -38.234375 C 54.457031 -49.976562 46.386719 -57.066406 32.9375 -57.066406 L 6.847656 -57.066406 L 6.847656 0 L 19.402344 0 L 19.402344 -18.261719 L 29.265625 -18.261719 L 41.496094 0 Z M 41.742188 -37.421875 C 41.742188 -32.609375 38.234375 -29.347656 32.121094 -29.347656 L 19.402344 -29.347656 L 19.402344 -45.734375 L 31.875 -45.734375 C 37.992188 -45.734375 41.742188 -42.964844 41.742188 -37.582031 Z M 41.742188 -37.421875 "/></g></g></g><g fill="#b1d4e0" fill-opacity="1"><g transform="translate(195.283393, 168.061375)"><g><path d="M 50.300781 0 L 50.300781 -11.167969 L 19.320312 -11.167969 L 19.320312 -23.152344 L 46.226562 -23.152344 L 46.226562 -34.320312 L 19.320312 -34.320312 L 19.320312 -45.898438 L 49.894531 -45.898438 L 49.894531 -57.066406 L 6.847656 -57.066406 L 6.847656 0 Z M 50.300781 0 "/></g></g></g><g fill="#b1d4e0" fill-opacity="1"><g transform="translate(249.898808, 168.061375)"><g><path d="M 59.433594 -28.535156 L 59.433594 -28.695312 C 59.433594 -44.757812 47.039062 -57.066406 29.105469 -57.066406 L 6.847656 -57.066406 L 6.847656 0 L 29.105469 0 C 47.039062 0 59.433594 -12.472656 59.433594 -28.535156 Z M 46.304688 -28.371094 C 46.304688 -18.261719 39.375 -11.332031 29.105469 -11.332031 L 19.402344 -11.332031 L 19.402344 -45.734375 L 29.105469 -45.734375 C 39.375 -45.734375 46.304688 -38.644531 46.304688 -28.535156 Z M 46.304688 -28.371094 "/></g></g></g><g mask="url(#id2)"><g transform="matrix(1, 0, 0, 1, 0, 17)"><g clip-path="url(#id4)"><g clip-path="url(#id3)"><path fill="#b1d4e0" d="M 168.75 0.539062 C 75.550781 0.539062 0 76.09375 0 169.289062 C 0 262.488281 75.550781 338.039062 168.75 338.039062 C 261.949219 338.039062 337.5 262.488281 337.5 169.289062 C 337.5 76.09375 261.949219 0.539062 168.75 0.539062 " fill-opacity="1" fill-rule="nonzero"/></g></g></g></g></svg>